name C:\Users\r0593348\3dpredictsim\Results\MidTarsalJoint\Fal_s1_bCst_PF_Natali2010_ls150_MT_k1500_MTP_T2_ig24.mot
datacolumns 128
datarows 4
range 0.00000000 0.03332262
endheader
time	pelvis_tilt	pelvis_list	pelvis_rotation	pelvis_tx	pelvis_ty	pelvis_tz	hip_flexion_l	hip_adduction_l	hip_rotation_l	hip_flexion_r	hip_adduction_r	hip_rotation_r	knee_angle_l	knee_angle_r	ankle_angle_l	ankle_angle_r	subtalar_angle_l	subtalar_angle_r	mtj_angle_l	mtj_angle_r	mtp_angle_l	mtp_angle_r	lumbar_extension	lumbar_bending	lumbar_rotation	arm_flex_l	arm_add_l	arm_rot_l	arm_flex_r	arm_add_r	arm_rot_r	elbow_flex_l	elbow_flex_r	pro_sup_l	pro_sup_r	glut_med1_l/activation	glut_med2_l/activation	glut_med3_l/activation	glut_min1_l/activation	glut_min2_l/activation	glut_min3_l/activation	semimem_l/activation	semiten_l/activation	bifemlh_l/activation	bifemsh_l/activation	sar_l/activation	add_long_l/activation	add_brev_l/activation	add_mag1_l/activation	add_mag2_l/activation	add_mag3_l/activation	tfl_l/activation	pect_l/activation	grac_l/activation	glut_max1_l/activation	glut_max2_l/activation	glut_max3_l/activation	iliacus_l/activation	psoas_l/activation	quad_fem_l/activation	gem_l/activation	peri_l/activation	rect_fem_l/activation	vas_med_l/activation	vas_int_l/activation	vas_lat_l/activation	med_gas_l/activation	lat_gas_l/activation	soleus_l/activation	tib_post_l/activation	flex_dig_l/activation	flex_hal_l/activation	tib_ant_l/activation	per_brev_l/activation	per_long_l/activation	per_tert_l/activation	ext_dig_l/activation	ext_hal_l/activation	ercspn_l/activation	intobl_l/activation	extobl_l/activation	glut_med1_r/activation	glut_med2_r/activation	glut_med3_r/activation	glut_min1_r/activation	glut_min2_r/activation	glut_min3_r/activation	semimem_r/activation	semiten_r/activation	bifemlh_r/activation	bifemsh_r/activation	sar_r/activation	add_long_r/activation	add_brev_r/activation	add_mag1_r/activation	add_mag2_r/activation	add_mag3_r/activation	tfl_r/activation	pect_r/activation	grac_r/activation	glut_max1_r/activation	glut_max2_r/activation	glut_max3_r/activation	iliacus_r/activation	psoas_r/activation	quad_fem_r/activation	gem_r/activation	peri_r/activation	rect_fem_r/activation	vas_med_r/activation	vas_int_r/activation	vas_lat_r/activation	med_gas_r/activation	lat_gas_r/activation	soleus_r/activation	tib_post_r/activation	flex_dig_r/activation	flex_hal_r/activation	tib_ant_r/activation	per_brev_r/activation	per_long_r/activation	per_tert_r/activation	ext_dig_r/activation	ext_hal_r/activation	ercspn_r/activation	intobl_r/activation	extobl_r/activation	
          0.00000000	         -2.92897207	         -1.95214510	          4.60401241	          0.00000000	          0.92041155	         -0.00211048	        -17.55526395	         -0.66244138	          6.52483425	         29.91589552	          3.01558922	         -2.70479328	         -4.23743866	        -12.36884537	          0.51571631	          6.56391851	          6.69431714	         -3.85568196	          1.22384975	         -0.00643571	         18.52538685	         -0.95103546	         -2.31738731	          0.09484747	         -1.88434292	          5.62032846	        -13.44998918	         16.60809234	         -3.63103209	        -13.45394977	          7.58757781	         31.36353461	         16.52519780	         86.51662706	         86.51662706	          0.31688222	          0.11709699	          0.08658632	          0.36173742	          0.23065961	          0.13343950	          0.05000052	          0.05000018	          0.05000016	          0.07231588	          0.12095555	          0.05000007	          0.05000006	          0.05000012	          0.05000034	          0.05000028	          0.36805338	          0.05000037	          0.05000038	          0.05006397	          0.05000302	          0.05000065	          0.45891635	          0.68441297	          0.05000040	          0.05004842	          0.06841558	          0.26202540	          0.05000038	          0.05000040	          0.05000041	          0.34874013	          0.47728267	          0.31929040	          0.30294267	          0.31549945	          0.38691086	          0.05000004	          0.05000111	          0.11102660	          0.05000020	          0.05000005	          0.05000021	          0.05000000	          0.05000000	          0.05000001	          0.07022573	          0.05000053	          0.05001467	          0.05000040	          0.05000046	          0.05000174	          0.11781073	          0.07007665	          0.24667742	          0.05426210	          0.05000143	          0.13595318	          0.16320139	          0.14685971	          0.12663324	          0.10359585	          0.05851392	          0.05003236	          0.10596480	          0.05925614	          0.07140375	          0.09571998	          0.05000014	          0.05000042	          0.18391618	          0.05000032	          0.05000165	          0.05000007	          0.05000040	          0.05000046	          0.05000029	          0.05000005	          0.05000012	          0.05000001	          0.05925617	          0.05000184	          0.05494809	          0.43461582	          0.24895511	          0.19759522	          0.09030292	          0.41328414	          0.14586855	          0.07117511	          0.13313908	          0.12311038	
          0.01110754	         -2.93003917	         -2.04632015	          4.92282019	          0.01628576	          0.91933765	         -0.00192153	        -17.55277010	         -0.96085941	          6.32332965	         29.40724715	          3.36093135	         -2.51073079	         -5.92092545	        -12.00346557	         -0.00286941	          6.21865119	          7.61002464	         -4.24366230	          1.03315023	         -0.00380343	         19.78138391	         -0.94267227	         -2.15024720	          0.29294575	         -1.95447330	          5.44831456	        -13.45506196	         16.98446134	         -4.43425069	        -13.45130498	          7.28035384	         32.51976168	         16.08011219	         86.51662706	         86.51662706	          0.26782081	          0.09880556	          0.07306090	          0.30523142	          0.19462887	          0.11259526	          0.05000077	          0.05000023	          0.05000015	          0.06101962	          0.10206152	          0.09432013	          0.05000703	          0.05000122	          0.05000214	          0.05000069	          0.31056081	          0.08453097	          0.05000317	          0.05000420	          0.05000279	          0.05000228	          0.40430140	          0.65882926	          0.05000134	          0.05000059	          0.05772859	          0.22109520	          0.05000405	          0.05000371	          0.05000253	          0.29426428	          0.40272774	          0.30626483	          0.29688514	          0.30836937	          0.40003779	          0.05000003	          0.05499510	          0.11134856	          0.05000021	          0.05000005	          0.05000021	          0.05000002	          0.05000007	          0.05000007	          0.05925613	          0.05925611	          0.05000017	          0.05925629	          0.05925627	          0.05001293	          0.11030995	          0.05913028	          0.23251798	          0.05000019	          0.05000031	          0.13853180	          0.30352713	          0.12395623	          0.13942033	          0.10795337	          0.05000013	          0.08280403	          0.08941521	          0.05000034	          0.09596120	          0.15855689	          0.05777931	          0.05000021	          0.17481886	          0.25805639	          0.13266268	          0.05421822	          0.14038000	          0.13686974	          0.12420677	          0.05000063	          0.05000056	          0.05256818	          0.05000002	          0.05000035	          0.05000017	          0.55323920	          0.27021828	          0.16672945	          0.22656039	          0.47955646	          0.22455016	          0.06005702	          0.11234175	          0.10387961	
          0.02221508	         -2.92668078	         -2.14004624	          5.21776736	          0.03292847	          0.91832611	         -0.00172196	        -17.45086185	         -1.25873012	          6.11694331	         28.80883145	          3.68792473	         -2.26904196	         -7.78969539	        -12.23619978	         -0.65699478	          5.60767386	          8.52062280	         -4.60966347	          0.79704932	         -0.01782181	         21.03015197	         -0.93019990	         -1.95673932	          0.49992231	         -2.01770052	          5.18977120	        -13.46226648	         17.28654593	         -5.28793761	        -13.45007421	          6.99520126	         33.66544252	         15.71557582	         86.51662706	         86.51662706	          0.22598521	          0.08337140	          0.06164825	          0.25755207	          0.16422640	          0.09500706	          0.05000239	          0.05000052	          0.05000071	          0.05148794	          0.08611887	          0.18267420	          0.05001628	          0.05927382	          0.05925412	          0.05925754	          0.26204895	          0.07758166	          0.05000250	          0.05000196	          0.05000145	          0.05000210	          0.34114650	          0.60889854	          0.05000035	          0.05925558	          0.05925626	          0.18678486	          0.15665281	          0.15448245	          0.14533251	          0.24829797	          0.33981862	          0.26083275	          0.26973809	          0.26020048	          0.33834705	          0.05000002	          0.05000007	          0.12316735	          0.05000008	          0.05000002	          0.05000012	          0.05574800	          0.06268210	          0.05299942	          0.05000000	          0.05000004	          0.11370671	          0.05000004	          0.05000004	          0.05000007	          0.09307876	          0.05000037	          0.19619694	          0.05000035	          0.05925441	          0.11689223	          0.25611415	          0.31150476	          0.21157154	          0.12639716	          0.05000039	          0.06987105	          0.11945800	          0.05696799	          0.10940282	          0.13378969	          0.05000006	          0.07020771	          0.41432119	          0.21774604	          0.11193979	          0.05925809	          0.13177775	          0.14322303	          0.11882973	          0.05000017	          0.05931601	          0.05000001	          0.06256499	          0.05015277	          0.05925716	          0.48096116	          0.31184673	          0.20239033	          0.19116999	          0.43170088	          0.18947376	          0.05067566	          0.09479312	          0.08765283	
          0.03332262	         -2.91968862	         -2.23727999	          5.48549337	          0.04984054	          0.91738138	         -0.00153589	        -17.27163731	         -1.55677753	          5.89775006	         28.09733272	          3.93637219	         -2.00659876	         -9.78267398	        -12.78199279	         -1.48302864	          5.10006489	          9.39329431	         -5.00057463	          0.52876630	         -0.03481707	         22.20235756	         -0.98766440	         -1.74496599	          0.71838974	         -2.06962457	          4.85755681	        -13.46674465	         17.51561670	         -6.17025725	        -13.45567359	          6.75699990	         34.79708999	         15.41230938	         86.51662706	         86.51662706	          0.30630538	          0.07034817	          0.05201836	          0.32665865	          0.13857304	          0.08016627	          0.05000097	          0.05000017	          0.05000013	          0.05000014	          0.07266666	          0.15413926	          0.05000416	          0.05001501	          0.05000131	          0.05000138	          0.24649413	          0.07022635	          0.05000082	          0.05000196	          0.05000118	          0.05000082	          0.28785692	          0.57716102	          0.05000019	          0.05000051	          0.05000018	          0.15760770	          0.13218268	          0.13035134	          0.12263067	          0.20951193	          0.28673637	          0.22008869	          0.22760306	          0.21955536	          0.28549486	          0.05000001	          0.09241950	          0.14850662	          0.05000009	          0.05000001	          0.05000010	          0.05074194	          0.05289069	          0.05000003	          0.23444750	          0.22791284	          0.29478611	          0.33987297	          0.22339865	          0.20820149	          0.08726821	          0.05000047	          0.16554967	          0.05000045	          0.05000085	          0.09863281	          0.21610725	          0.26284542	          0.17852257	          0.12083066	          0.05000045	          0.05925582	          0.10079810	          0.05000082	          0.14019885	          0.11289100	          0.05715516	          0.05924080	          0.34960112	          0.18373255	          0.21023203	          0.05000156	          0.11119319	          0.12085064	          0.10026772	          0.05000104	          0.05005055	          0.05376323	          0.05279192	          0.05000033	          0.05000099	          0.55161585	          0.30493189	          0.17077551	          0.35755651	          0.51266960	          0.15987671	          0.06238599	          0.11655908	          0.07396079	
